@startuml
'https://plantuml.com/class-diagram

package "Job Opening Aggregate"{

    class "«entity»\nRecruitmentProcess" as RecruitmentProcess{
        HasInterview
    }

     class "«entity»\nPhase" as Phase{
         description
         beginDate
         finalDate
     }


    class "«root»\n«entity» \nJobOpening" as JobOpening{


    }

    class SetupStatus {
    }

    class RequirementsStatus {
    }

    class "«value object»\nInterviewPhaseStatus" as InterviewPhaseStatus{
    }

     class "«value object»\nContractType" as ContractType{
     }

    class "«value object»\nMode" as Mode{
        description
    }

    class "«value object»\nJobFunction" as JobFunction{
         description
    }

    class "«value object»\n NumberOfVacancies" as  NumberOfVacancies{

    }

    class "«value object»\nDescription" as Description{
         description
    }


    class "«value object»\nAddress" as Address1{
        Street
        City
        State
        Country
        Zipcode
    }

    class "«value object»\n«identifier»\nJobReference" as JobReference{
    }

}

package "Plugin Aggregate"{
    class  "«root»\n«entity»\nPlugin" as Plugin{
    }
    class "«value object»\n«identifier»\nPluginIdentifier" as PlugID{
    }
    class "«value object»\nPluginType" as PlugType{
    }
    class "«value object»\nPluginMainClassName" as PlugClass{
    }
    class "«value object»\nJarFileName" as JarFile{
    }
    class "«value object»\nDescription" as PlugDesc{
    }
}

package "Customer Aggregate"{
    class "«entity»\n«root»\nCustomer" as Customer{

    }

class SystemUser{
}

    class "Name" as Name1 {
        firstName
        lastName
    }
     class "«value object»\nE-Mail" as EMail1{
     }

     class "«value object»\nAddress" as Address2{
            Street
            City
            State
            Country
            Zipcode
     }

     class "«value object»\nCode" as Code{
     }

}

Customer "1"-->"1" EMail1 : has an
Address2 <-- Customer : has an

Customer --> Code : identified by
Customer --> Name1 : has
Customer --> SystemUser : managed by

Mode "1" <-- "1"JobOpening : includes
JobFunction "1" <-- "1"JobOpening : includes
NumberOfVacancies "1" <-- "1"JobOpening : includes
Description "1" <-- "1"JobOpening : includes
Address1"1" <-- "1"JobOpening : includes
ContractType "1" <--"1" JobOpening : includes
JobOpening "1"-->"1" SetupStatus : includes
JobOpening "1"-->"1" RequirementsStatus : includes
JobOpening "1"-->"1" InterviewPhaseStatus : includes
JobOpening "1" --> "1"RecruitmentProcess :includes
JobOpening "1"-->"1" JobReference : includes
Customer "1"<-"1" JobOpening : includes
Plugin "0..2" <-- "1" JobOpening : includes

RecruitmentProcess "1" *--"4..5" Phase :part of
Plugin"1" -->"1" PlugClass : includes
Plugin"1" -->"1" JarFile : includes
Plugin "1"--> "1"PlugDesc : includes
Plugin "1" --> "1" PlugID : identified by
Plugin"1" --> "1" PlugType : has a

@enduml