@startuml

title "US1003 - List job openings" Class Diagram

class JobOpening {
-jobReference : JobReference
-numberOfVacancies : NumberOfVacancies
-jobFunction : JobFunction
-contractType : ContractType
-mode : Mode
-address : Address
-companyName : Customer
-description :Description
-registrationDate : Calendar
-recruitmentProcess : RecruitmentProcess
-requirementsPlugin : Plugin
-interviewPlugin :Plugin

+jobReference() :JobReference
+jobFunction() : JobFunction
+contractType() : ContractType
+mode() : Mode
+address() : Address
+companyName() : Customer
+description() : Description
+registrationDate() : Calendar
+setId(JobReference jobReference)
+recruitmentProcess() : RecruitmentProcess
+requirementsPlugin() : Plugin
+interviewPlugin() : Plugin
}

class JobFunction{
-jobDescription : String
}

class NumberOfVacancies{
-number : Integer
}

class Description{
-description : String
}

class JobReference{
-jobReference : Integer
+jobReference() : Integer
}

class Address{
-street : String
-city : String
-state : String
-country : String
-zipcode : String

-validateZipcode(zipcode) : Boolean
}


class Customer{
-systemUser : SystemUser
-code : Code
-address : Address
-customerManager : SystemUser

+user() : SystemUser
+getID() : Code
+address() : Address
+customerManagerAssociated() : SystemUser
}

class EmailAddress{
-email : String

}

class Name{
-firstName : String
-lastName : String
+firstName() : String
+lastName() : String
}

class Code{
-code : String
+getCode() : String
}


class SystemUser{
-name : Name
-email : EmailAddress

+email() : EmailAddress
+name() : Name
}

class Mode{
-modeDescription
+modeDescription()
}

class ContractType{
-contractType : String
+contractType()


}

class ListJobOpeningUI{
selectCustomer() : Customer
selectRegistrationDate() : Date
displayJobOpenings(Iterable<JobOpening> jobOpenings)
displayCustomerMenu(List<Customer> customers) : Customer
displayRegisterDates(List<Calendar> registrationDate) : Date
}

class ListJobOpeningController{
+allJobOpenings() : Iterable<JobOpening>
+allJobOpeningRegistrationDates() : List<Date>
+filterJobOpeningsBySystemUser() : List<JobOpening>
+filterCustomersBySystemUser() : List<Customer>
+filterJobOpeningsByCustomer(Customer customer) : List<JobOpening>
+filterJobOpeningsByRegistrationDate(Calendar registrationDate) :  List<JobOpening>
}


class PersistenceContext{
+repositories()
}

interface RepositoryFactory{
jobOpenings()
jobOpenings(TransactionalContext tx)
customers()
customers(TransactionalContext autoTx)
}

interface CustomerRepository{
findAll()
}

interface JobOpeningRepository{
findAll()
jobOpenings()
}



JobOpening --> Address
JobOpening --> Mode
JobOpening --> ContractType
JobOpening --> Customer
JobOpening --> JobFunction
JobOpening --> JobReference
JobOpening --> Description
JobOpening --> NumberOfVacancies


Customer --> Code
Customer --> SystemUser
Customer --> Address

ListJobOpeningUI ..> ListJobOpeningController

ListJobOpeningController ..> JobOpeningRepository
ListJobOpeningController ..> CustomerRepository

JobOpeningRepository --> "*" JobOpening :stores

CustomerRepository --> "*" Customer :stores

ListJobOpeningController --> PersistenceContext

PersistenceContext --> RepositoryFactory
SystemUser --> Name
SystemUser --> EmailAddress
RepositoryFactory ..> JobOpeningRepository
RepositoryFactory  ..> CustomerRepository
@enduml